<mxfile host="app.diagrams.net" agent="Mozilla/5.0 (Windows NT 10.0; Win64; x64) AppleWebKit/537.36 (KHTML, like Gecko) Chrome/127.0.0.0 Safari/537.36" version="24.7.7">
  <diagram id="8XueRVyKptP6TZ4SduWV" name="Strona-1">
    <mxGraphModel dx="2117" dy="1691" grid="1" gridSize="10" guides="1" tooltips="1" connect="1" arrows="1" fold="1" page="1" pageScale="1" pageWidth="827" pageHeight="1169" math="0" shadow="0">
      <root>
        <mxCell id="0" />
        <mxCell id="1" parent="0" />
        <mxCell id="wZQWbqXdrKicEIXemPAb-1" value="Student" style="swimlane;fontStyle=1;align=center;verticalAlign=top;childLayout=stackLayout;horizontal=1;startSize=26;horizontalStack=0;resizeParent=1;resizeParentMax=0;resizeLast=0;collapsible=1;marginBottom=0;" parent="1" vertex="1">
          <mxGeometry x="310" y="80" width="210" height="86" as="geometry" />
        </mxCell>
        <mxCell id="wZQWbqXdrKicEIXemPAb-2" value="Ilość uczelni na których studiuje int" style="text;strokeColor=none;fillColor=none;align=left;verticalAlign=top;spacingLeft=4;spacingRight=4;overflow=hidden;rotatable=0;points=[[0,0.5],[1,0.5]];portConstraint=eastwest;" parent="wZQWbqXdrKicEIXemPAb-1" vertex="1">
          <mxGeometry y="26" width="210" height="26" as="geometry" />
        </mxCell>
        <mxCell id="wZQWbqXdrKicEIXemPAb-3" value="" style="line;strokeWidth=1;fillColor=none;align=left;verticalAlign=middle;spacingTop=-1;spacingLeft=3;spacingRight=3;rotatable=0;labelPosition=right;points=[];portConstraint=eastwest;" parent="wZQWbqXdrKicEIXemPAb-1" vertex="1">
          <mxGeometry y="52" width="210" height="8" as="geometry" />
        </mxCell>
        <mxCell id="wZQWbqXdrKicEIXemPAb-4" value="Studiuje()" style="text;strokeColor=none;fillColor=none;align=left;verticalAlign=top;spacingLeft=4;spacingRight=4;overflow=hidden;rotatable=0;points=[[0,0.5],[1,0.5]];portConstraint=eastwest;" parent="wZQWbqXdrKicEIXemPAb-1" vertex="1">
          <mxGeometry y="60" width="210" height="26" as="geometry" />
        </mxCell>
        <mxCell id="wZQWbqXdrKicEIXemPAb-5" value="Ćwiczenia" style="swimlane;fontStyle=1;align=center;verticalAlign=top;childLayout=stackLayout;horizontal=1;startSize=26;horizontalStack=0;resizeParent=1;resizeParentMax=0;resizeLast=0;collapsible=1;marginBottom=0;" parent="1" vertex="1">
          <mxGeometry x="60" y="280" width="160" height="82" as="geometry" />
        </mxCell>
        <mxCell id="wZQWbqXdrKicEIXemPAb-6" value="Ilość studentów int" style="text;strokeColor=none;fillColor=none;align=left;verticalAlign=top;spacingLeft=4;spacingRight=4;overflow=hidden;rotatable=0;points=[[0,0.5],[1,0.5]];portConstraint=eastwest;" parent="wZQWbqXdrKicEIXemPAb-5" vertex="1">
          <mxGeometry y="26" width="160" height="22" as="geometry" />
        </mxCell>
        <mxCell id="wZQWbqXdrKicEIXemPAb-7" value="" style="line;strokeWidth=1;fillColor=none;align=left;verticalAlign=middle;spacingTop=-1;spacingLeft=3;spacingRight=3;rotatable=0;labelPosition=right;points=[];portConstraint=eastwest;" parent="wZQWbqXdrKicEIXemPAb-5" vertex="1">
          <mxGeometry y="48" width="160" height="8" as="geometry" />
        </mxCell>
        <mxCell id="wZQWbqXdrKicEIXemPAb-8" value="Odbywa się()" style="text;strokeColor=none;fillColor=none;align=left;verticalAlign=top;spacingLeft=4;spacingRight=4;overflow=hidden;rotatable=0;points=[[0,0.5],[1,0.5]];portConstraint=eastwest;" parent="wZQWbqXdrKicEIXemPAb-5" vertex="1">
          <mxGeometry y="56" width="160" height="26" as="geometry" />
        </mxCell>
        <mxCell id="wZQWbqXdrKicEIXemPAb-9" value="Wykład" style="swimlane;fontStyle=1;align=center;verticalAlign=top;childLayout=stackLayout;horizontal=1;startSize=26;horizontalStack=0;resizeParent=1;resizeParentMax=0;resizeLast=0;collapsible=1;marginBottom=0;" parent="1" vertex="1">
          <mxGeometry x="590" y="280" width="160" height="86" as="geometry" />
        </mxCell>
        <mxCell id="wZQWbqXdrKicEIXemPAb-10" value="Ilość studentów int" style="text;strokeColor=none;fillColor=none;align=left;verticalAlign=top;spacingLeft=4;spacingRight=4;overflow=hidden;rotatable=0;points=[[0,0.5],[1,0.5]];portConstraint=eastwest;" parent="wZQWbqXdrKicEIXemPAb-9" vertex="1">
          <mxGeometry y="26" width="160" height="26" as="geometry" />
        </mxCell>
        <mxCell id="wZQWbqXdrKicEIXemPAb-11" value="" style="line;strokeWidth=1;fillColor=none;align=left;verticalAlign=middle;spacingTop=-1;spacingLeft=3;spacingRight=3;rotatable=0;labelPosition=right;points=[];portConstraint=eastwest;" parent="wZQWbqXdrKicEIXemPAb-9" vertex="1">
          <mxGeometry y="52" width="160" height="8" as="geometry" />
        </mxCell>
        <mxCell id="wZQWbqXdrKicEIXemPAb-12" value="Odbywa się()" style="text;strokeColor=none;fillColor=none;align=left;verticalAlign=top;spacingLeft=4;spacingRight=4;overflow=hidden;rotatable=0;points=[[0,0.5],[1,0.5]];portConstraint=eastwest;" parent="wZQWbqXdrKicEIXemPAb-9" vertex="1">
          <mxGeometry y="60" width="160" height="26" as="geometry" />
        </mxCell>
        <mxCell id="wZQWbqXdrKicEIXemPAb-13" value="" style="endArrow=none;html=1;entryX=0;entryY=1;entryDx=0;entryDy=0;exitX=0.556;exitY=0.024;exitDx=0;exitDy=0;exitPerimeter=0;" parent="1" source="wZQWbqXdrKicEIXemPAb-5" target="wZQWbqXdrKicEIXemPAb-1" edge="1">
          <mxGeometry width="50" height="50" relative="1" as="geometry">
            <mxPoint x="290" y="260" as="sourcePoint" />
            <mxPoint x="340" y="210" as="targetPoint" />
            <Array as="points" />
          </mxGeometry>
        </mxCell>
        <mxCell id="wZQWbqXdrKicEIXemPAb-14" value="" style="endArrow=none;html=1;exitX=0.119;exitY=-0.012;exitDx=0;exitDy=0;exitPerimeter=0;entryX=1;entryY=0.5;entryDx=0;entryDy=0;" parent="1" source="wZQWbqXdrKicEIXemPAb-9" target="wZQWbqXdrKicEIXemPAb-4" edge="1">
          <mxGeometry width="50" height="50" relative="1" as="geometry">
            <mxPoint x="420" y="240" as="sourcePoint" />
            <mxPoint x="470" y="190" as="targetPoint" />
          </mxGeometry>
        </mxCell>
        <mxCell id="wZQWbqXdrKicEIXemPAb-15" value="1...N" style="text;html=1;strokeColor=none;fillColor=none;align=center;verticalAlign=middle;whiteSpace=wrap;rounded=0;" parent="1" vertex="1">
          <mxGeometry x="520" y="140" width="40" height="20" as="geometry" />
        </mxCell>
        <mxCell id="wZQWbqXdrKicEIXemPAb-16" value="1...N" style="text;html=1;strokeColor=none;fillColor=none;align=center;verticalAlign=middle;whiteSpace=wrap;rounded=0;" parent="1" vertex="1">
          <mxGeometry x="600" y="260" width="40" height="20" as="geometry" />
        </mxCell>
        <mxCell id="wZQWbqXdrKicEIXemPAb-17" value="1...30" style="text;html=1;strokeColor=none;fillColor=none;align=center;verticalAlign=middle;whiteSpace=wrap;rounded=0;" parent="1" vertex="1">
          <mxGeometry x="100" y="260" width="40" height="20" as="geometry" />
        </mxCell>
        <mxCell id="wZQWbqXdrKicEIXemPAb-18" value="1...N" style="text;html=1;strokeColor=none;fillColor=none;align=center;verticalAlign=middle;whiteSpace=wrap;rounded=0;" parent="1" vertex="1">
          <mxGeometry x="270" y="160" width="40" height="20" as="geometry" />
        </mxCell>
        <mxCell id="wZQWbqXdrKicEIXemPAb-20" value="Ćwiczenia laboratoryjne" style="swimlane;fontStyle=1;align=center;verticalAlign=top;childLayout=stackLayout;horizontal=1;startSize=26;horizontalStack=0;resizeParent=1;resizeParentMax=0;resizeLast=0;collapsible=1;marginBottom=0;" parent="1" vertex="1">
          <mxGeometry x="60" y="480" width="160" height="86" as="geometry" />
        </mxCell>
        <mxCell id="wZQWbqXdrKicEIXemPAb-21" value="Ilość studentów int " style="text;strokeColor=none;fillColor=none;align=left;verticalAlign=top;spacingLeft=4;spacingRight=4;overflow=hidden;rotatable=0;points=[[0,0.5],[1,0.5]];portConstraint=eastwest;" parent="wZQWbqXdrKicEIXemPAb-20" vertex="1">
          <mxGeometry y="26" width="160" height="26" as="geometry" />
        </mxCell>
        <mxCell id="wZQWbqXdrKicEIXemPAb-22" value="" style="line;strokeWidth=1;fillColor=none;align=left;verticalAlign=middle;spacingTop=-1;spacingLeft=3;spacingRight=3;rotatable=0;labelPosition=right;points=[];portConstraint=eastwest;" parent="wZQWbqXdrKicEIXemPAb-20" vertex="1">
          <mxGeometry y="52" width="160" height="8" as="geometry" />
        </mxCell>
        <mxCell id="wZQWbqXdrKicEIXemPAb-23" value="Odbywają się()" style="text;strokeColor=none;fillColor=none;align=left;verticalAlign=top;spacingLeft=4;spacingRight=4;overflow=hidden;rotatable=0;points=[[0,0.5],[1,0.5]];portConstraint=eastwest;" parent="wZQWbqXdrKicEIXemPAb-20" vertex="1">
          <mxGeometry y="60" width="160" height="26" as="geometry" />
        </mxCell>
        <mxCell id="wZQWbqXdrKicEIXemPAb-24" value="" style="endArrow=none;html=1;entryX=0;entryY=0.923;entryDx=0;entryDy=0;entryPerimeter=0;" parent="1" target="wZQWbqXdrKicEIXemPAb-2" edge="1">
          <mxGeometry width="50" height="50" relative="1" as="geometry">
            <mxPoint x="60" y="490" as="sourcePoint" />
            <mxPoint x="300" y="110" as="targetPoint" />
            <Array as="points">
              <mxPoint x="60" y="480" />
              <mxPoint x="30" y="280" />
            </Array>
          </mxGeometry>
        </mxCell>
        <mxCell id="wZQWbqXdrKicEIXemPAb-25" value="1..15/20" style="text;html=1;strokeColor=none;fillColor=none;align=center;verticalAlign=middle;whiteSpace=wrap;rounded=0;" parent="1" vertex="1">
          <mxGeometry x="60" y="450" width="40" height="30" as="geometry" />
        </mxCell>
        <mxCell id="wZQWbqXdrKicEIXemPAb-26" value="1...N" style="text;html=1;strokeColor=none;fillColor=none;align=center;verticalAlign=middle;whiteSpace=wrap;rounded=0;" parent="1" vertex="1">
          <mxGeometry x="270" y="113" width="40" height="20" as="geometry" />
        </mxCell>
        <mxCell id="wZQWbqXdrKicEIXemPAb-27" value="Nauczyciel" style="swimlane;fontStyle=1;align=center;verticalAlign=top;childLayout=stackLayout;horizontal=1;startSize=26;horizontalStack=0;resizeParent=1;resizeParentMax=0;resizeLast=0;collapsible=1;marginBottom=0;" parent="1" vertex="1">
          <mxGeometry x="310" y="364" width="160" height="86" as="geometry" />
        </mxCell>
        <mxCell id="wZQWbqXdrKicEIXemPAb-28" value="Ilość zajęć int" style="text;strokeColor=none;fillColor=none;align=left;verticalAlign=top;spacingLeft=4;spacingRight=4;overflow=hidden;rotatable=0;points=[[0,0.5],[1,0.5]];portConstraint=eastwest;" parent="wZQWbqXdrKicEIXemPAb-27" vertex="1">
          <mxGeometry y="26" width="160" height="26" as="geometry" />
        </mxCell>
        <mxCell id="wZQWbqXdrKicEIXemPAb-29" value="" style="line;strokeWidth=1;fillColor=none;align=left;verticalAlign=middle;spacingTop=-1;spacingLeft=3;spacingRight=3;rotatable=0;labelPosition=right;points=[];portConstraint=eastwest;" parent="wZQWbqXdrKicEIXemPAb-27" vertex="1">
          <mxGeometry y="52" width="160" height="8" as="geometry" />
        </mxCell>
        <mxCell id="wZQWbqXdrKicEIXemPAb-30" value="Prowadzi zajęcia()" style="text;strokeColor=none;fillColor=none;align=left;verticalAlign=top;spacingLeft=4;spacingRight=4;overflow=hidden;rotatable=0;points=[[0,0.5],[1,0.5]];portConstraint=eastwest;" parent="wZQWbqXdrKicEIXemPAb-27" vertex="1">
          <mxGeometry y="60" width="160" height="26" as="geometry" />
        </mxCell>
        <mxCell id="wZQWbqXdrKicEIXemPAb-31" value="" style="endArrow=none;html=1;entryX=-0.012;entryY=0.846;entryDx=0;entryDy=0;entryPerimeter=0;exitX=1;exitY=0.5;exitDx=0;exitDy=0;" parent="1" source="wZQWbqXdrKicEIXemPAb-28" target="wZQWbqXdrKicEIXemPAb-10" edge="1">
          <mxGeometry width="50" height="50" relative="1" as="geometry">
            <mxPoint x="330" y="370" as="sourcePoint" />
            <mxPoint x="380" y="320" as="targetPoint" />
          </mxGeometry>
        </mxCell>
        <mxCell id="wZQWbqXdrKicEIXemPAb-32" value="" style="endArrow=none;html=1;exitX=1.006;exitY=0.955;exitDx=0;exitDy=0;exitPerimeter=0;entryX=0;entryY=0.25;entryDx=0;entryDy=0;" parent="1" source="wZQWbqXdrKicEIXemPAb-6" target="wZQWbqXdrKicEIXemPAb-27" edge="1">
          <mxGeometry width="50" height="50" relative="1" as="geometry">
            <mxPoint x="250" y="390" as="sourcePoint" />
            <mxPoint x="300" y="340" as="targetPoint" />
          </mxGeometry>
        </mxCell>
        <mxCell id="wZQWbqXdrKicEIXemPAb-33" value="0...N" style="text;html=1;strokeColor=none;fillColor=none;align=center;verticalAlign=middle;whiteSpace=wrap;rounded=0;" parent="1" vertex="1">
          <mxGeometry x="470" y="404" width="40" height="20" as="geometry" />
        </mxCell>
        <mxCell id="wZQWbqXdrKicEIXemPAb-34" value="0...1" style="text;html=1;strokeColor=none;fillColor=none;align=center;verticalAlign=middle;whiteSpace=wrap;rounded=0;" parent="1" vertex="1">
          <mxGeometry x="540" y="308" width="40" height="20" as="geometry" />
        </mxCell>
        <mxCell id="wZQWbqXdrKicEIXemPAb-35" value="1...3" style="text;html=1;strokeColor=none;fillColor=none;align=center;verticalAlign=middle;whiteSpace=wrap;rounded=0;" parent="1" vertex="1">
          <mxGeometry x="230" y="308" width="40" height="20" as="geometry" />
        </mxCell>
        <mxCell id="wZQWbqXdrKicEIXemPAb-36" value="Uczelnia" style="swimlane;fontStyle=1;align=center;verticalAlign=top;childLayout=stackLayout;horizontal=1;startSize=26;horizontalStack=0;resizeParent=1;resizeParentMax=0;resizeLast=0;collapsible=1;marginBottom=0;" parent="1" vertex="1">
          <mxGeometry x="310" y="-100" width="160" height="82" as="geometry" />
        </mxCell>
        <mxCell id="wZQWbqXdrKicEIXemPAb-37" value="Ilość studentów int" style="text;strokeColor=none;fillColor=none;align=left;verticalAlign=top;spacingLeft=4;spacingRight=4;overflow=hidden;rotatable=0;points=[[0,0.5],[1,0.5]];portConstraint=eastwest;" parent="wZQWbqXdrKicEIXemPAb-36" vertex="1">
          <mxGeometry y="26" width="160" height="22" as="geometry" />
        </mxCell>
        <mxCell id="wZQWbqXdrKicEIXemPAb-38" value="" style="line;strokeWidth=1;fillColor=none;align=left;verticalAlign=middle;spacingTop=-1;spacingLeft=3;spacingRight=3;rotatable=0;labelPosition=right;points=[];portConstraint=eastwest;" parent="wZQWbqXdrKicEIXemPAb-36" vertex="1">
          <mxGeometry y="48" width="160" height="8" as="geometry" />
        </mxCell>
        <mxCell id="wZQWbqXdrKicEIXemPAb-39" value="+ method(type): type" style="text;strokeColor=none;fillColor=none;align=left;verticalAlign=top;spacingLeft=4;spacingRight=4;overflow=hidden;rotatable=0;points=[[0,0.5],[1,0.5]];portConstraint=eastwest;" parent="wZQWbqXdrKicEIXemPAb-36" vertex="1">
          <mxGeometry y="56" width="160" height="26" as="geometry" />
        </mxCell>
        <mxCell id="wZQWbqXdrKicEIXemPAb-40" value="" style="endArrow=diamondThin;endFill=0;endSize=24;html=1;exitX=0;exitY=1;exitDx=0;exitDy=0;entryX=0.319;entryY=1.077;entryDx=0;entryDy=0;entryPerimeter=0;" parent="1" source="wZQWbqXdrKicEIXemPAb-42" target="wZQWbqXdrKicEIXemPAb-39" edge="1">
          <mxGeometry width="160" relative="1" as="geometry">
            <mxPoint x="330" y="30" as="sourcePoint" />
            <mxPoint x="490" y="30" as="targetPoint" />
          </mxGeometry>
        </mxCell>
        <mxCell id="wZQWbqXdrKicEIXemPAb-41" value="0...N" style="text;html=1;strokeColor=none;fillColor=none;align=center;verticalAlign=middle;whiteSpace=wrap;rounded=0;" parent="1" vertex="1">
          <mxGeometry x="374" y="-10" width="40" height="20" as="geometry" />
        </mxCell>
        <mxCell id="wZQWbqXdrKicEIXemPAb-42" value="1...N" style="text;html=1;strokeColor=none;fillColor=none;align=center;verticalAlign=middle;whiteSpace=wrap;rounded=0;" parent="1" vertex="1">
          <mxGeometry x="370" y="60" width="40" height="20" as="geometry" />
        </mxCell>
        <mxCell id="wZQWbqXdrKicEIXemPAb-43" value="Wydział" style="swimlane;fontStyle=1;align=center;verticalAlign=top;childLayout=stackLayout;horizontal=1;startSize=26;horizontalStack=0;resizeParent=1;resizeParentMax=0;resizeLast=0;collapsible=1;marginBottom=0;" parent="1" vertex="1">
          <mxGeometry x="590" y="-100" width="220" height="86" as="geometry" />
        </mxCell>
        <mxCell id="wZQWbqXdrKicEIXemPAb-44" value="Ilość pracujących wykładowców int" style="text;strokeColor=none;fillColor=none;align=left;verticalAlign=top;spacingLeft=4;spacingRight=4;overflow=hidden;rotatable=0;points=[[0,0.5],[1,0.5]];portConstraint=eastwest;" parent="wZQWbqXdrKicEIXemPAb-43" vertex="1">
          <mxGeometry y="26" width="220" height="26" as="geometry" />
        </mxCell>
        <mxCell id="wZQWbqXdrKicEIXemPAb-45" value="" style="line;strokeWidth=1;fillColor=none;align=left;verticalAlign=middle;spacingTop=-1;spacingLeft=3;spacingRight=3;rotatable=0;labelPosition=right;points=[];portConstraint=eastwest;" parent="wZQWbqXdrKicEIXemPAb-43" vertex="1">
          <mxGeometry y="52" width="220" height="8" as="geometry" />
        </mxCell>
        <mxCell id="wZQWbqXdrKicEIXemPAb-46" value="+ method(type): type" style="text;strokeColor=none;fillColor=none;align=left;verticalAlign=top;spacingLeft=4;spacingRight=4;overflow=hidden;rotatable=0;points=[[0,0.5],[1,0.5]];portConstraint=eastwest;" parent="wZQWbqXdrKicEIXemPAb-43" vertex="1">
          <mxGeometry y="60" width="220" height="26" as="geometry" />
        </mxCell>
        <mxCell id="wZQWbqXdrKicEIXemPAb-82" style="edgeStyle=orthogonalEdgeStyle;rounded=0;orthogonalLoop=1;jettySize=auto;html=1;exitX=1;exitY=0.5;exitDx=0;exitDy=0;" parent="wZQWbqXdrKicEIXemPAb-43" source="wZQWbqXdrKicEIXemPAb-44" target="wZQWbqXdrKicEIXemPAb-44" edge="1">
          <mxGeometry relative="1" as="geometry" />
        </mxCell>
        <mxCell id="wZQWbqXdrKicEIXemPAb-48" value="1..N" style="text;html=1;strokeColor=none;fillColor=none;align=center;verticalAlign=middle;whiteSpace=wrap;rounded=0;" parent="1" vertex="1">
          <mxGeometry x="470" y="-80" width="40" height="20" as="geometry" />
        </mxCell>
        <mxCell id="wZQWbqXdrKicEIXemPAb-49" value="1" style="text;html=1;strokeColor=none;fillColor=none;align=center;verticalAlign=middle;whiteSpace=wrap;rounded=0;" parent="1" vertex="1">
          <mxGeometry x="550" y="-73" width="40" height="20" as="geometry" />
        </mxCell>
        <mxCell id="wZQWbqXdrKicEIXemPAb-50" value="" style="endArrow=none;html=1;exitX=0.669;exitY=1.077;exitDx=0;exitDy=0;exitPerimeter=0;entryX=0.5;entryY=1;entryDx=0;entryDy=0;" parent="1" source="wZQWbqXdrKicEIXemPAb-30" target="wZQWbqXdrKicEIXemPAb-43" edge="1">
          <mxGeometry width="50" height="50" relative="1" as="geometry">
            <mxPoint x="500" y="560" as="sourcePoint" />
            <mxPoint x="550" y="510" as="targetPoint" />
            <Array as="points">
              <mxPoint x="490" y="480" />
              <mxPoint x="610" y="480" />
              <mxPoint x="800" y="460" />
              <mxPoint x="810" y="220" />
            </Array>
          </mxGeometry>
        </mxCell>
        <mxCell id="wZQWbqXdrKicEIXemPAb-51" value="1..N" style="text;html=1;strokeColor=none;fillColor=none;align=center;verticalAlign=middle;whiteSpace=wrap;rounded=0;" parent="1" vertex="1">
          <mxGeometry x="450" y="450" width="40" height="20" as="geometry" />
        </mxCell>
        <mxCell id="wZQWbqXdrKicEIXemPAb-52" value="1..N" style="text;html=1;strokeColor=none;fillColor=none;align=center;verticalAlign=middle;whiteSpace=wrap;rounded=0;" parent="1" vertex="1">
          <mxGeometry x="710" y="-10" width="40" height="20" as="geometry" />
        </mxCell>
        <mxCell id="wZQWbqXdrKicEIXemPAb-54" value="Dziekan" style="swimlane;fontStyle=1;align=center;verticalAlign=top;childLayout=stackLayout;horizontal=1;startSize=26;horizontalStack=0;resizeParent=1;resizeParentMax=0;resizeLast=0;collapsible=1;marginBottom=0;" parent="1" vertex="1">
          <mxGeometry x="790" y="590" width="160" height="86" as="geometry" />
        </mxCell>
        <mxCell id="wZQWbqXdrKicEIXemPAb-55" value="+ field: type" style="text;strokeColor=none;fillColor=none;align=left;verticalAlign=top;spacingLeft=4;spacingRight=4;overflow=hidden;rotatable=0;points=[[0,0.5],[1,0.5]];portConstraint=eastwest;" parent="wZQWbqXdrKicEIXemPAb-54" vertex="1">
          <mxGeometry y="26" width="160" height="26" as="geometry" />
        </mxCell>
        <mxCell id="wZQWbqXdrKicEIXemPAb-56" value="" style="line;strokeWidth=1;fillColor=none;align=left;verticalAlign=middle;spacingTop=-1;spacingLeft=3;spacingRight=3;rotatable=0;labelPosition=right;points=[];portConstraint=eastwest;" parent="wZQWbqXdrKicEIXemPAb-54" vertex="1">
          <mxGeometry y="52" width="160" height="8" as="geometry" />
        </mxCell>
        <mxCell id="wZQWbqXdrKicEIXemPAb-57" value="Zarządza()" style="text;strokeColor=none;fillColor=none;align=left;verticalAlign=top;spacingLeft=4;spacingRight=4;overflow=hidden;rotatable=0;points=[[0,0.5],[1,0.5]];portConstraint=eastwest;" parent="wZQWbqXdrKicEIXemPAb-54" vertex="1">
          <mxGeometry y="60" width="160" height="26" as="geometry" />
        </mxCell>
        <mxCell id="wZQWbqXdrKicEIXemPAb-58" value="" style="endArrow=none;html=1;exitX=0.75;exitY=0;exitDx=0;exitDy=0;entryX=1;entryY=0.5;entryDx=0;entryDy=0;" parent="1" source="wZQWbqXdrKicEIXemPAb-54" target="wZQWbqXdrKicEIXemPAb-43" edge="1">
          <mxGeometry width="50" height="50" relative="1" as="geometry">
            <mxPoint x="740" y="620" as="sourcePoint" />
            <mxPoint x="880" y="570" as="targetPoint" />
            <Array as="points">
              <mxPoint x="910" y="600" />
              <mxPoint x="920" y="-60" />
            </Array>
          </mxGeometry>
        </mxCell>
        <mxCell id="wZQWbqXdrKicEIXemPAb-59" value="1" style="text;html=1;strokeColor=none;fillColor=none;align=center;verticalAlign=middle;whiteSpace=wrap;rounded=0;" parent="1" vertex="1">
          <mxGeometry x="810" y="-80" width="40" height="20" as="geometry" />
        </mxCell>
        <mxCell id="wZQWbqXdrKicEIXemPAb-60" value="1" style="text;html=1;strokeColor=none;fillColor=none;align=center;verticalAlign=middle;whiteSpace=wrap;rounded=0;" parent="1" vertex="1">
          <mxGeometry x="910" y="565" width="40" height="20" as="geometry" />
        </mxCell>
        <mxCell id="wZQWbqXdrKicEIXemPAb-61" value="" style="endArrow=diamondThin;endFill=0;endSize=24;html=1;exitX=-0.031;exitY=0.231;exitDx=0;exitDy=0;exitPerimeter=0;entryX=0.388;entryY=1.038;entryDx=0;entryDy=0;entryPerimeter=0;" parent="1" source="wZQWbqXdrKicEIXemPAb-55" target="wZQWbqXdrKicEIXemPAb-30" edge="1">
          <mxGeometry width="160" relative="1" as="geometry">
            <mxPoint x="430" y="590" as="sourcePoint" />
            <mxPoint x="590" y="590" as="targetPoint" />
            <Array as="points">
              <mxPoint x="372" y="629" />
            </Array>
          </mxGeometry>
        </mxCell>
        <mxCell id="wZQWbqXdrKicEIXemPAb-62" value="0..N" style="text;html=1;strokeColor=none;fillColor=none;align=center;verticalAlign=middle;whiteSpace=wrap;rounded=0;" parent="1" vertex="1">
          <mxGeometry x="380" y="460" width="40" height="20" as="geometry" />
        </mxCell>
        <mxCell id="wZQWbqXdrKicEIXemPAb-63" value="1...N" style="text;html=1;strokeColor=none;fillColor=none;align=center;verticalAlign=middle;whiteSpace=wrap;rounded=0;" parent="1" vertex="1">
          <mxGeometry x="750" y="590" width="40" height="20" as="geometry" />
        </mxCell>
        <mxCell id="wZQWbqXdrKicEIXemPAb-64" value="Kierunek" style="swimlane;fontStyle=1;align=center;verticalAlign=top;childLayout=stackLayout;horizontal=1;startSize=26;horizontalStack=0;resizeParent=1;resizeParentMax=0;resizeLast=0;collapsible=1;marginBottom=0;" parent="1" vertex="1">
          <mxGeometry x="10" y="60" width="200" height="86" as="geometry" />
        </mxCell>
        <mxCell id="wZQWbqXdrKicEIXemPAb-65" value="Ilość studentów int" style="text;strokeColor=none;fillColor=none;align=left;verticalAlign=top;spacingLeft=4;spacingRight=4;overflow=hidden;rotatable=0;points=[[0,0.5],[1,0.5]];portConstraint=eastwest;" parent="wZQWbqXdrKicEIXemPAb-64" vertex="1">
          <mxGeometry y="26" width="200" height="26" as="geometry" />
        </mxCell>
        <mxCell id="wZQWbqXdrKicEIXemPAb-66" value="" style="line;strokeWidth=1;fillColor=none;align=left;verticalAlign=middle;spacingTop=-1;spacingLeft=3;spacingRight=3;rotatable=0;labelPosition=right;points=[];portConstraint=eastwest;" parent="wZQWbqXdrKicEIXemPAb-64" vertex="1">
          <mxGeometry y="52" width="200" height="8" as="geometry" />
        </mxCell>
        <mxCell id="wZQWbqXdrKicEIXemPAb-67" value="Zawiera informację o studentach()" style="text;strokeColor=none;fillColor=none;align=left;verticalAlign=top;spacingLeft=4;spacingRight=4;overflow=hidden;rotatable=0;points=[[0,0.5],[1,0.5]];portConstraint=eastwest;" parent="wZQWbqXdrKicEIXemPAb-64" vertex="1">
          <mxGeometry y="60" width="200" height="26" as="geometry" />
        </mxCell>
        <mxCell id="wZQWbqXdrKicEIXemPAb-68" value="" style="endArrow=none;html=1;entryX=-0.006;entryY=0.081;entryDx=0;entryDy=0;entryPerimeter=0;exitX=0.994;exitY=0;exitDx=0;exitDy=0;exitPerimeter=0;" parent="1" source="wZQWbqXdrKicEIXemPAb-65" target="wZQWbqXdrKicEIXemPAb-1" edge="1">
          <mxGeometry width="50" height="50" relative="1" as="geometry">
            <mxPoint x="220" y="90" as="sourcePoint" />
            <mxPoint x="270" y="40" as="targetPoint" />
          </mxGeometry>
        </mxCell>
        <mxCell id="wZQWbqXdrKicEIXemPAb-69" value="1...N" style="text;html=1;strokeColor=none;fillColor=none;align=center;verticalAlign=middle;whiteSpace=wrap;rounded=0;" parent="1" vertex="1">
          <mxGeometry x="210" y="60" width="40" height="20" as="geometry" />
        </mxCell>
        <mxCell id="wZQWbqXdrKicEIXemPAb-70" value="1...N" style="text;html=1;strokeColor=none;fillColor=none;align=center;verticalAlign=middle;whiteSpace=wrap;rounded=0;" parent="1" vertex="1">
          <mxGeometry x="270" y="60" width="40" height="20" as="geometry" />
        </mxCell>
        <mxCell id="wZQWbqXdrKicEIXemPAb-71" value="Pani z dziekanatu" style="swimlane;fontStyle=1;align=center;verticalAlign=top;childLayout=stackLayout;horizontal=1;startSize=26;horizontalStack=0;resizeParent=1;resizeParentMax=0;resizeLast=0;collapsible=1;marginBottom=0;" parent="1" vertex="1">
          <mxGeometry x="-220" y="620" width="280" height="110" as="geometry" />
        </mxCell>
        <mxCell id="wZQWbqXdrKicEIXemPAb-72" value="Ilość kierunków którymi się opiekuje int" style="text;strokeColor=none;fillColor=none;align=left;verticalAlign=top;spacingLeft=4;spacingRight=4;overflow=hidden;rotatable=0;points=[[0,0.5],[1,0.5]];portConstraint=eastwest;" parent="wZQWbqXdrKicEIXemPAb-71" vertex="1">
          <mxGeometry y="26" width="280" height="24" as="geometry" />
        </mxCell>
        <mxCell id="wZQWbqXdrKicEIXemPAb-73" value="" style="line;strokeWidth=1;fillColor=none;align=left;verticalAlign=middle;spacingTop=-1;spacingLeft=3;spacingRight=3;rotatable=0;labelPosition=right;points=[];portConstraint=eastwest;" parent="wZQWbqXdrKicEIXemPAb-71" vertex="1">
          <mxGeometry y="50" width="280" height="8" as="geometry" />
        </mxCell>
        <mxCell id="wZQWbqXdrKicEIXemPAb-74" value="Opiekuje się kierunkami()" style="text;strokeColor=none;fillColor=none;align=left;verticalAlign=top;spacingLeft=4;spacingRight=4;overflow=hidden;rotatable=0;points=[[0,0.5],[1,0.5]];portConstraint=eastwest;" parent="wZQWbqXdrKicEIXemPAb-71" vertex="1">
          <mxGeometry y="58" width="280" height="26" as="geometry" />
        </mxCell>
        <mxCell id="wZQWbqXdrKicEIXemPAb-79" value="Współpracuje z Nauczycielem oraz dziekanem()" style="text;strokeColor=none;fillColor=none;align=left;verticalAlign=top;spacingLeft=4;spacingRight=4;overflow=hidden;rotatable=0;points=[[0,0.5],[1,0.5]];portConstraint=eastwest;" parent="wZQWbqXdrKicEIXemPAb-71" vertex="1">
          <mxGeometry y="84" width="280" height="26" as="geometry" />
        </mxCell>
        <mxCell id="wZQWbqXdrKicEIXemPAb-75" value="" style="endArrow=none;html=1;exitX=0.438;exitY=-0.023;exitDx=0;exitDy=0;exitPerimeter=0;entryX=-0.019;entryY=0.077;entryDx=0;entryDy=0;entryPerimeter=0;" parent="1" source="wZQWbqXdrKicEIXemPAb-71" target="wZQWbqXdrKicEIXemPAb-65" edge="1">
          <mxGeometry width="50" height="50" relative="1" as="geometry">
            <mxPoint x="-100" y="590" as="sourcePoint" />
            <mxPoint x="-80" y="80" as="targetPoint" />
            <Array as="points">
              <mxPoint x="-110" y="88" />
            </Array>
          </mxGeometry>
        </mxCell>
        <mxCell id="wZQWbqXdrKicEIXemPAb-76" value="1...N" style="text;html=1;strokeColor=none;fillColor=none;align=center;verticalAlign=middle;whiteSpace=wrap;rounded=0;" parent="1" vertex="1">
          <mxGeometry x="-40" y="60" width="40" height="20" as="geometry" />
        </mxCell>
        <mxCell id="wZQWbqXdrKicEIXemPAb-77" value="1...N" style="text;html=1;strokeColor=none;fillColor=none;align=center;verticalAlign=middle;whiteSpace=wrap;rounded=0;" parent="1" vertex="1">
          <mxGeometry x="-100" y="600" width="40" height="20" as="geometry" />
        </mxCell>
        <mxCell id="wZQWbqXdrKicEIXemPAb-78" value="" style="endArrow=none;html=1;exitX=1;exitY=0.5;exitDx=0;exitDy=0;entryX=0.131;entryY=1.154;entryDx=0;entryDy=0;entryPerimeter=0;" parent="1" source="wZQWbqXdrKicEIXemPAb-72" target="wZQWbqXdrKicEIXemPAb-30" edge="1">
          <mxGeometry width="50" height="50" relative="1" as="geometry">
            <mxPoint x="60" y="690" as="sourcePoint" />
            <mxPoint x="130" y="640" as="targetPoint" />
            <Array as="points">
              <mxPoint x="310" y="620" />
            </Array>
          </mxGeometry>
        </mxCell>
        <mxCell id="wZQWbqXdrKicEIXemPAb-80" value="" style="endArrow=none;html=1;exitX=1;exitY=0.5;exitDx=0;exitDy=0;entryX=0;entryY=0.5;entryDx=0;entryDy=0;" parent="1" source="wZQWbqXdrKicEIXemPAb-74" target="wZQWbqXdrKicEIXemPAb-57" edge="1">
          <mxGeometry width="50" height="50" relative="1" as="geometry">
            <mxPoint x="180" y="730" as="sourcePoint" />
            <mxPoint x="230" y="680" as="targetPoint" />
          </mxGeometry>
        </mxCell>
        <mxCell id="wZQWbqXdrKicEIXemPAb-81" value="" style="endArrow=block;endSize=16;endFill=0;html=1;exitX=0.438;exitY=0.023;exitDx=0;exitDy=0;exitPerimeter=0;entryX=0.544;entryY=1;entryDx=0;entryDy=0;entryPerimeter=0;" parent="1" source="wZQWbqXdrKicEIXemPAb-20" target="wZQWbqXdrKicEIXemPAb-8" edge="1">
          <mxGeometry width="160" relative="1" as="geometry">
            <mxPoint x="130" y="400" as="sourcePoint" />
            <mxPoint x="290" y="400" as="targetPoint" />
          </mxGeometry>
        </mxCell>
        <mxCell id="wZQWbqXdrKicEIXemPAb-83" value="1..N" style="text;html=1;strokeColor=none;fillColor=none;align=center;verticalAlign=middle;whiteSpace=wrap;rounded=0;" parent="1" vertex="1">
          <mxGeometry x="70" y="630" width="40" height="20" as="geometry" />
        </mxCell>
        <mxCell id="wZQWbqXdrKicEIXemPAb-85" value="1..N" style="text;html=1;strokeColor=none;fillColor=none;align=center;verticalAlign=middle;whiteSpace=wrap;rounded=0;" parent="1" vertex="1">
          <mxGeometry x="290" y="455" width="40" height="20" as="geometry" />
        </mxCell>
        <mxCell id="wZQWbqXdrKicEIXemPAb-86" value="1..N" style="text;html=1;strokeColor=none;fillColor=none;align=center;verticalAlign=middle;whiteSpace=wrap;rounded=0;" parent="1" vertex="1">
          <mxGeometry x="50" y="700" width="40" height="20" as="geometry" />
        </mxCell>
        <mxCell id="wZQWbqXdrKicEIXemPAb-87" value="1..N" style="text;html=1;strokeColor=none;fillColor=none;align=center;verticalAlign=middle;whiteSpace=wrap;rounded=0;" parent="1" vertex="1">
          <mxGeometry x="740" y="665" width="40" height="20" as="geometry" />
        </mxCell>
        <mxCell id="wZQWbqXdrKicEIXemPAb-88" value="" style="endArrow=diamondThin;endFill=1;endSize=24;html=1;exitX=0.018;exitY=-0.038;exitDx=0;exitDy=0;exitPerimeter=0;entryX=1.006;entryY=1.182;entryDx=0;entryDy=0;entryPerimeter=0;" parent="1" source="wZQWbqXdrKicEIXemPAb-46" target="wZQWbqXdrKicEIXemPAb-37" edge="1">
          <mxGeometry width="160" relative="1" as="geometry">
            <mxPoint x="600" y="-50" as="sourcePoint" />
            <mxPoint x="440" y="-50" as="targetPoint" />
          </mxGeometry>
        </mxCell>
      </root>
    </mxGraphModel>
  </diagram>
</mxfile>
